<?xml version="1.0" encoding="iso-8859-1"?>
<!-- Generator: Adobe Illustrator 19.0.0, SVG Export Plug-In . SVG Version: 6.00 Build 0)  -->
<svg xmlns="http://www.w3.org/2000/svg" xmlns:xlink="http://www.w3.org/1999/xlink" version="1.1" id="Capa_1" x="0px" y="0px" viewBox="0 0 512 512" style="enable-background:new 0 0 512 512;" xml:space="preserve" width="512px" height="512px">
<g>
	<g>
		<path d="M503.467,72.533H8.533C3.823,72.533,0,76.356,0,81.067v375.467c0,4.719,3.823,8.533,8.533,8.533h494.933    c4.719,0,8.533-3.814,8.533-8.533V81.067C512,76.356,508.186,72.533,503.467,72.533z M494.933,448H17.067V89.6h477.867V448z" fill="#24365c"/>
	</g>
</g>
<g>
	<g>
		<rect x="8.533" y="140.8" width="494.933" height="17.067" fill="#24365c"/>
	</g>
</g>
<g>
	<g>
		<path d="M273.067,192h-34.133c-4.71,0-8.533,3.823-8.533,8.533v34.133c0,4.71,3.823,8.533,8.533,8.533h34.133    c4.719,0,8.533-3.823,8.533-8.533v-34.133C281.6,195.823,277.786,192,273.067,192z M264.533,226.133h-17.067v-17.067h17.067    V226.133z" fill="#24365c"/>
	</g>
</g>
<g>
	<g>
		<path d="M358.4,192h-34.133c-4.719,0-8.533,3.823-8.533,8.533v34.133c0,4.71,3.814,8.533,8.533,8.533H358.4    c4.719,0,8.533-3.823,8.533-8.533v-34.133C366.933,195.823,363.119,192,358.4,192z M349.867,226.133H332.8v-17.067h17.067V226.133    z" fill="#24365c"/>
	</g>
</g>
<g>
	<g>
		<path d="M443.733,192H409.6c-4.719,0-8.533,3.823-8.533,8.533v34.133c0,4.71,3.814,8.533,8.533,8.533h34.133    c4.719,0,8.533-3.823,8.533-8.533v-34.133C452.267,195.823,448.452,192,443.733,192z M435.2,226.133h-17.067v-17.067H435.2    V226.133z" fill="#24365c"/>
	</g>
</g>
<g>
	<g>
		<path d="M443.733,277.333H409.6c-4.719,0-8.533,3.814-8.533,8.533V320c0,4.719,3.814,8.533,8.533,8.533h34.133    c4.719,0,8.533-3.814,8.533-8.533v-34.133C452.267,281.148,448.452,277.333,443.733,277.333z M435.2,311.467h-17.067V294.4H435.2    V311.467z" fill="#24365c"/>
	</g>
</g>
<g>
	<g>
		<path d="M102.4,277.333H68.267c-4.71,0-8.533,3.814-8.533,8.533V320c0,4.719,3.823,8.533,8.533,8.533H102.4    c4.71,0,8.533-3.814,8.533-8.533v-34.133C110.933,281.148,107.11,277.333,102.4,277.333z M93.867,311.467H76.8V294.4h17.067    V311.467z" fill="#24365c"/>
	</g>
</g>
<g>
	<g>
		<path d="M187.733,277.333H153.6c-4.71,0-8.533,3.814-8.533,8.533V320c0,4.719,3.823,8.533,8.533,8.533h34.133    c4.71,0,8.533-3.814,8.533-8.533v-34.133C196.267,281.148,192.444,277.333,187.733,277.333z M179.2,311.467h-17.067V294.4H179.2    V311.467z" fill="#24365c"/>
	</g>
</g>
<g>
	<g>
		<path d="M273.067,362.667h-34.133c-4.71,0-8.533,3.814-8.533,8.533v34.133c0,4.719,3.823,8.533,8.533,8.533h34.133    c4.719,0,8.533-3.814,8.533-8.533V371.2C281.6,366.481,277.786,362.667,273.067,362.667z M264.533,396.8h-17.067v-17.067h17.067    V396.8z" fill="#24365c"/>
	</g>
</g>
<g>
	<g>
		<path d="M358.4,362.667h-34.133c-4.719,0-8.533,3.814-8.533,8.533v34.133c0,4.719,3.814,8.533,8.533,8.533H358.4    c4.719,0,8.533-3.814,8.533-8.533V371.2C366.933,366.481,363.119,362.667,358.4,362.667z M349.867,396.8H332.8v-17.067h17.067    V396.8z" fill="#24365c"/>
	</g>
</g>
<g>
	<g>
		<path d="M102.4,362.667H68.267c-4.71,0-8.533,3.814-8.533,8.533v34.133c0,4.719,3.823,8.533,8.533,8.533H102.4    c4.71,0,8.533-3.814,8.533-8.533V371.2C110.933,366.481,107.11,362.667,102.4,362.667z M93.867,396.8H76.8v-17.067h17.067V396.8z" fill="#24365c"/>
	</g>
</g>
<g>
	<g>
		<path d="M187.733,362.667H153.6c-4.71,0-8.533,3.814-8.533,8.533v34.133c0,4.719,3.823,8.533,8.533,8.533h34.133    c4.71,0,8.533-3.814,8.533-8.533V371.2C196.267,366.481,192.444,362.667,187.733,362.667z M179.2,396.8h-17.067v-17.067H179.2    V396.8z" fill="#24365c"/>
	</g>
</g>
<g>
	<g>
		<path d="M187.733,192H153.6c-4.71,0-8.533,3.823-8.533,8.533v34.133c0,4.71,3.823,8.533,8.533,8.533h34.133    c4.71,0,8.533-3.823,8.533-8.533v-34.133C196.267,195.823,192.444,192,187.733,192z M179.2,226.133h-17.067v-17.067H179.2V226.133    z" fill="#24365c"/>
	</g>
</g>
<g>
	<g>
		<path d="M273.067,277.333h-34.133c-4.71,0-8.533,3.814-8.533,8.533V320c0,4.719,3.823,8.533,8.533,8.533h34.133    c4.719,0,8.533-3.814,8.533-8.533v-34.133C281.6,281.148,277.786,277.333,273.067,277.333z M264.533,311.467h-17.067V294.4h17.067    V311.467z" fill="#24365c"/>
	</g>
</g>
<g>
	<g>
		<rect x="247.467" y="46.933" width="17.067" height="68.267" fill="#24365c"/>
	</g>
</g>
<g>
	<g>
		<rect x="42.667" y="46.933" width="17.067" height="68.267" fill="#24365c"/>
	</g>
</g>
<g>
	<g>
		<rect x="179.2" y="46.933" width="17.067" height="68.267" fill="#24365c"/>
	</g>
</g>
<g>
	<g>
		<rect x="110.933" y="46.933" width="17.067" height="68.267" fill="#24365c"/>
	</g>
</g>
<g>
	<g>
		<rect x="315.733" y="46.933" width="17.067" height="68.267" fill="#24365c"/>
	</g>
</g>
<g>
	<g>
		<rect x="452.267" y="46.933" width="17.067" height="68.267" fill="#24365c"/>
	</g>
</g>
<g>
	<g>
		<rect x="384" y="46.933" width="17.067" height="68.267" fill="#24365c"/>
	</g>
</g>
<g>
	<g>
		<path d="M358.4,277.333h-34.133c-4.719,0-8.533,3.814-8.533,8.533V320c0,4.719,3.814,8.533,8.533,8.533H358.4    c4.719,0,8.533-3.814,8.533-8.533v-34.133C366.933,281.148,363.119,277.333,358.4,277.333z M349.867,311.467H332.8V294.4h17.067    V311.467z" fill="#24365c"/>
	</g>
</g>
<g>
</g>
<g>
</g>
<g>
</g>
<g>
</g>
<g>
</g>
<g>
</g>
<g>
</g>
<g>
</g>
<g>
</g>
<g>
</g>
<g>
</g>
<g>
</g>
<g>
</g>
<g>
</g>
<g>
</g>
</svg>
