<?xml version="1.0" encoding="iso-8859-1"?>
<!-- Generator: Adobe Illustrator 19.0.0, SVG Export Plug-In . SVG Version: 6.00 Build 0)  -->
<svg version="1.1" id="Capa_1" xmlns="http://www.w3.org/2000/svg" xmlns:xlink="http://www.w3.org/1999/xlink" x="0px" y="0px"
	 viewBox="0 0 512 512" style="enable-background:new 0 0 512 512;" xml:space="preserve">
<rect y="150.069" style="fill:#E5E5E5;" width="512" height="317.793"/>
<polygon style="fill:#D9D9D9;" points="0,406.952 0,467.862 512,467.862 512,150.069 391.857,150.069 "/>
<rect y="79.448" style="fill:#DE4C3C;" width="512" height="70.621"/>
<g>
	<rect x="247.172" y="44.138" style="fill:#4398D1;" width="17.655" height="70.621"/>
	<rect x="35.31" y="44.138" style="fill:#4398D1;" width="17.655" height="70.621"/>
	<rect x="176.552" y="44.138" style="fill:#4398D1;" width="17.655" height="70.621"/>
	<rect x="105.931" y="44.138" style="fill:#4398D1;" width="17.655" height="70.621"/>
	<rect x="317.793" y="44.138" style="fill:#4398D1;" width="17.655" height="70.621"/>
	<rect x="459.034" y="44.138" style="fill:#4398D1;" width="17.655" height="70.621"/>
	<rect x="388.414" y="44.138" style="fill:#4398D1;" width="17.655" height="70.621"/>
	<rect x="238.345" y="203.034" style="fill:#4398D1;" width="35.31" height="35.31"/>
	<rect x="326.621" y="203.034" style="fill:#4398D1;" width="35.31" height="35.31"/>
	<rect x="414.897" y="203.034" style="fill:#4398D1;" width="35.31" height="35.31"/>
	<rect x="414.897" y="291.31" style="fill:#4398D1;" width="35.31" height="35.31"/>
	<rect x="61.793" y="291.31" style="fill:#4398D1;" width="35.31" height="35.31"/>
	<rect x="150.069" y="291.31" style="fill:#4398D1;" width="35.31" height="35.31"/>
	<rect x="238.345" y="379.586" style="fill:#4398D1;" width="35.31" height="35.31"/>
	<rect x="326.621" y="379.586" style="fill:#4398D1;" width="35.31" height="35.31"/>
	<rect x="61.793" y="379.586" style="fill:#4398D1;" width="35.31" height="35.31"/>
	<rect x="150.069" y="379.586" style="fill:#4398D1;" width="35.31" height="35.31"/>
	<rect x="150.069" y="203.034" style="fill:#4398D1;" width="35.31" height="35.31"/>
	<rect x="238.345" y="291.31" style="fill:#4398D1;" width="35.31" height="35.31"/>
	<rect x="326.621" y="291.31" style="fill:#4398D1;" width="35.31" height="35.31"/>
</g>
<g>
</g>
<g>
</g>
<g>
</g>
<g>
</g>
<g>
</g>
<g>
</g>
<g>
</g>
<g>
</g>
<g>
</g>
<g>
</g>
<g>
</g>
<g>
</g>
<g>
</g>
<g>
</g>
<g>
</g>
</svg>
