<?xml version="1.0" encoding="iso-8859-1"?>
<!-- Generator: Adobe Illustrator 19.0.0, SVG Export Plug-In . SVG Version: 6.00 Build 0)  -->
<svg version="1.1" id="Layer_1" xmlns="http://www.w3.org/2000/svg" xmlns:xlink="http://www.w3.org/1999/xlink" x="0px" y="0px"
	 viewBox="0 0 512 512" style="enable-background:new 0 0 512 512;" xml:space="preserve">
<path style="fill:#FD6144;" d="M466.201,218.011c0-0.011-39.463-13.166-39.463-13.166c-8.811-2.926-19.242-12.209-23.203-20.604
	l-34.703-73.751c-7.899-16.8-29.561-30.54-48.128-30.54H146.286c-18.567,0-44.167,11.061-56.894,24.587l-77.824,82.685
	C5.21,193.986,0,207.107,0,216.39v105.945c0,18.567,15.191,33.758,33.758,33.758h448.838c16.17,0,29.403-15.191,29.403-33.758
	v-40.802L466.201,218.011z M46.361,199.511l67.618-71.838c6.38-6.785,22.989-13.965,32.307-13.965h174.418
	c5.536,0,15.236,6.155,17.588,11.163l34.703,74.639H46.361z"/>
<g>
	<path style="fill:#B8DE6F;" d="M133.548,280.137c41.95,0,75.956,34.006,75.956,75.956s-34.006,75.956-75.956,75.956
		s-75.956-34.006-75.956-75.956S91.597,280.137,133.548,280.137z"/>
	<path style="fill:#B8DE6F;" d="M378.452,280.137c41.95,0,75.956,34.006,75.956,75.956s-34.006,75.956-75.956,75.956
		s-75.956-34.006-75.956-75.956S336.502,280.137,378.452,280.137z"/>
</g>
<g>
	<path style="fill:#FFFFFF;" d="M133.548,325.148c17.07,0,30.945,13.886,30.945,30.945s-13.875,30.945-30.945,30.945
		c-17.059,0-30.945-13.886-30.945-30.945S116.488,325.148,133.548,325.148z"/>
	<path style="fill:#FFFFFF;" d="M378.452,325.148c17.059,0,30.945,13.886,30.945,30.945s-13.886,30.945-30.945,30.945
		c-17.07,0-30.945-13.886-30.945-30.945S361.382,325.148,378.452,325.148z"/>
	<path style="fill:#FFFFFF;" d="M206.803,113.709v85.802H46.361l67.618-71.838c6.38-6.785,22.989-13.965,32.307-13.965H206.803z"/>
</g>
<path style="fill:#CFF2F2;" d="M338.291,124.872l34.703,74.639H206.803v-85.802h113.9
	C326.24,113.709,335.94,119.864,338.291,124.872z"/>
<path style="fill:#FECA72;" d="M466.213,218.011C491.396,226.405,512,254.987,512,281.533c-26.658,0-48.263-21.605-48.263-48.263
	C463.737,227.936,464.603,222.816,466.213,218.011z"/>
<g>
</g>
<g>
</g>
<g>
</g>
<g>
</g>
<g>
</g>
<g>
</g>
<g>
</g>
<g>
</g>
<g>
</g>
<g>
</g>
<g>
</g>
<g>
</g>
<g>
</g>
<g>
</g>
<g>
</g>
</svg>
