<?xml version="1.0" encoding="iso-8859-1"?>
<!-- Generator: Adobe Illustrator 19.0.0, SVG Export Plug-In . SVG Version: 6.00 Build 0)  -->
<svg version="1.1" id="Capa_1" xmlns="http://www.w3.org/2000/svg" xmlns:xlink="http://www.w3.org/1999/xlink" x="0px" y="0px"
	 viewBox="0 0 512 512" style="enable-background:new 0 0 512 512;" xml:space="preserve">
<rect x="52.068" y="4.339" style="fill:#D1D1D1;" width="321.085" height="459.932"/>
<g>
	<rect x="95.458" y="47.729" style="fill:#BDBDBD;" width="34.712" height="17.356"/>
	<rect x="295.051" y="56.407" style="fill:#BDBDBD;" width="34.712" height="17.356"/>
	<rect x="286.373" y="99.797" style="fill:#BDBDBD;" width="43.39" height="17.356"/>
	<rect x="242.983" y="56.407" style="fill:#BDBDBD;" width="34.712" height="17.356"/>
</g>
<polygon style="fill:#EBEBEB;" points="321.085,143.186 321.085,507.661 0,507.661 0,56.407 234.305,56.407 "/>
<path id="SVGCleanerId_0" style="fill:#E0E0E0;" d="M0,441.448v66.213h321.085V143.186l-22.65-22.649
	C230.226,271.36,91.119,382.264,0,441.448z"/>
<g>
	<path style="fill:#3582BD;" d="M468.61,464.271l-26.034,43.39l-26.034-43.39V125.831c0-14.379,11.655-26.034,26.034-26.034l0,0
		c14.379,0,26.034,11.655,26.034,26.034V464.271z"/>
	<path style="fill:#3582BD;" d="M442.576,99.797v407.864l26.034-43.39V125.831C468.61,111.451,456.956,99.797,442.576,99.797z"/>
</g>
<g>
	<path id="SVGCleanerId_0_1_" style="fill:#E0E0E0;" d="M0,441.448v66.213h321.085V143.186l-22.65-22.649
		C230.226,271.36,91.119,382.264,0,441.448z"/>
</g>
<g>
	<path style="fill:#215280;" d="M512,299.39h-17.356V151.864c0-4.79-3.888-8.678-8.678-8.678h-78.102v-17.356h78.102
		c14.379,0,26.034,11.655,26.034,26.034V299.39z"/>
	<rect x="416.542" y="282.034" style="fill:#215280;" width="52.068" height="17.356"/>
	<rect x="416.542" y="455.593" style="fill:#215280;" width="52.068" height="17.356"/>
</g>
<g>
	<rect x="86.78" y="264.678" style="fill:#88B337;" width="17.356" height="34.712"/>
	<rect x="121.492" y="229.966" style="fill:#88B337;" width="17.356" height="69.424"/>
	<rect x="156.203" y="203.932" style="fill:#88B337;" width="17.356" height="95.458"/>
	<rect x="190.915" y="229.966" style="fill:#88B337;" width="17.356" height="69.424"/>
	<rect x="225.627" y="212.61" style="fill:#88B337;" width="17.356" height="86.78"/>
</g>
<path style="fill:#4398D1;" d="M269.017,308.068H60.746c-4.79,0-8.678-3.888-8.678-8.678v-95.458h17.356v86.78h199.593V308.068z"/>
<g>
	<rect x="52.068" y="377.492" style="fill:#BDBDBD;" width="216.949" height="17.356"/>
	<rect x="52.068" y="420.881" style="fill:#BDBDBD;" width="130.169" height="17.356"/>
	<rect x="104.136" y="334.102" style="fill:#BDBDBD;" width="164.881" height="17.356"/>
	<rect x="52.068" y="334.102" style="fill:#BDBDBD;" width="34.712" height="17.356"/>
	<rect x="52.068" y="108.475" style="fill:#BDBDBD;" width="112.814" height="17.356"/>
	<rect x="52.068" y="151.864" style="fill:#BDBDBD;" width="78.102" height="17.356"/>
	<rect x="199.593" y="420.881" style="fill:#BDBDBD;" width="34.712" height="17.356"/>
</g>
<rect x="234.305" y="143.186" style="fill:#E0E0E0;" width="86.78" height="17.356"/>
<polygon style="fill:#FFFFFF;" points="321.085,143.186 234.305,143.186 234.305,56.407 "/>
<g>
</g>
<g>
</g>
<g>
</g>
<g>
</g>
<g>
</g>
<g>
</g>
<g>
</g>
<g>
</g>
<g>
</g>
<g>
</g>
<g>
</g>
<g>
</g>
<g>
</g>
<g>
</g>
<g>
</g>
</svg>
