<?xml version="1.0" encoding="iso-8859-1"?>
<!-- Generator: Adobe Illustrator 19.0.0, SVG Export Plug-In . SVG Version: 6.00 Build 0)  -->
<svg version="1.1" id="Capa_1" xmlns="http://www.w3.org/2000/svg" xmlns:xlink="http://www.w3.org/1999/xlink" x="0px" y="0px"
	 viewBox="0 0 512 512" style="enable-background:new 0 0 512 512;" xml:space="preserve">
<polygon style="fill:#4398D1;" points="503.467,494.933 503.467,409.6 503.467,401.067 503.467,392.533 486.4,392.533 
	486.4,341.333 503.467,341.333 503.467,324.267 486.4,324.267 486.4,273.067 503.467,273.067 503.467,256 486.4,256 486.4,204.8 
	503.467,204.8 503.467,187.733 486.4,187.733 486.4,136.533 503.467,136.533 503.467,119.467 486.4,119.467 486.4,59.733 
	469.333,59.733 469.333,8.533 366.933,8.533 366.933,59.733 349.867,59.733 349.867,119.467 332.8,119.467 332.8,136.533 
	349.867,136.533 349.867,187.733 332.8,187.733 332.8,204.8 349.867,204.8 349.867,256 332.8,256 332.8,273.067 349.867,273.067 
	349.867,324.267 332.8,324.267 332.8,341.333 349.867,341.333 349.867,392.533 332.8,392.533 332.8,401.067 332.8,409.6 
	332.8,494.933 324.267,494.933 324.267,512 512,512 512,494.933 "/>
<polygon style="fill:#3E8CC7;" points="512,494.933 503.467,494.933 503.467,409.6 503.467,401.067 503.467,392.533 486.4,392.533 
	486.4,341.333 503.467,341.333 503.467,324.267 486.4,324.267 486.4,273.067 503.467,273.067 503.467,256 486.4,256 486.4,204.8 
	503.467,204.8 503.467,187.733 486.4,187.733 486.4,136.533 503.467,136.533 503.467,119.467 486.4,119.467 486.4,59.733 
	469.333,59.733 469.333,8.533 443.733,8.533 443.733,512 512,512 "/>
<g>
	<path style="fill:#3582BD;" d="M426.667,93.867c0-4.71-3.823-8.533-8.533-8.533s-8.533,3.823-8.533,8.533v25.6h17.067V93.867z"/>
	<path style="fill:#3582BD;" d="M392.533,93.867c0-4.71-3.823-8.533-8.533-8.533s-8.533,3.823-8.533,8.533v25.6h17.067V93.867z"/>
	<path style="fill:#3582BD;" d="M460.8,93.867c0-4.71-3.823-8.533-8.533-8.533s-8.533,3.823-8.533,8.533v25.6H460.8V93.867z"/>
	<path style="fill:#3582BD;" d="M409.6,42.667c0-4.71-3.823-8.533-8.533-8.533s-8.533,3.823-8.533,8.533v17.067H409.6V42.667z"/>
	<path style="fill:#3582BD;" d="M443.733,42.667c0-4.71-3.823-8.533-8.533-8.533s-8.533,3.823-8.533,8.533v17.067h17.067V42.667z"/>
	<path style="fill:#3582BD;" d="M426.667,162.133c0-4.71-3.823-8.533-8.533-8.533s-8.533,3.823-8.533,8.533v25.6h17.067V162.133z"/>
	<path style="fill:#3582BD;" d="M392.533,162.133c0-4.71-3.823-8.533-8.533-8.533s-8.533,3.823-8.533,8.533v25.6h17.067V162.133z"/>
	<path style="fill:#3582BD;" d="M460.8,162.133c0-4.71-3.823-8.533-8.533-8.533s-8.533,3.823-8.533,8.533v25.6H460.8V162.133z"/>
	<path style="fill:#3582BD;" d="M426.667,230.4c0-4.71-3.823-8.533-8.533-8.533s-8.533,3.823-8.533,8.533V256h17.067V230.4z"/>
	<path style="fill:#3582BD;" d="M392.533,230.4c0-4.71-3.823-8.533-8.533-8.533s-8.533,3.823-8.533,8.533V256h17.067V230.4z"/>
	<path style="fill:#3582BD;" d="M460.8,230.4c0-4.71-3.823-8.533-8.533-8.533s-8.533,3.823-8.533,8.533V256H460.8V230.4z"/>
	<path style="fill:#3582BD;" d="M426.667,298.667c0-4.71-3.823-8.533-8.533-8.533s-8.533,3.823-8.533,8.533v25.6h17.067V298.667z"/>
	<path style="fill:#3582BD;" d="M392.533,298.667c0-4.71-3.823-8.533-8.533-8.533s-8.533,3.823-8.533,8.533v25.6h17.067V298.667z"/>
	<path style="fill:#3582BD;" d="M460.8,298.667c0-4.71-3.823-8.533-8.533-8.533s-8.533,3.823-8.533,8.533v25.6H460.8V298.667z"/>
	<path style="fill:#3582BD;" d="M426.667,366.933c0-4.71-3.823-8.533-8.533-8.533s-8.533,3.823-8.533,8.533v25.6h17.067V366.933z"/>
	<path style="fill:#3582BD;" d="M392.533,366.933c0-4.71-3.823-8.533-8.533-8.533s-8.533,3.823-8.533,8.533v25.6h17.067V366.933z"/>
	<path style="fill:#3582BD;" d="M460.8,366.933c0-4.71-3.823-8.533-8.533-8.533s-8.533,3.823-8.533,8.533v25.6H460.8V366.933z"/>
	<path style="fill:#3582BD;" d="M418.133,426.667c-9.429,0-17.067,7.637-17.067,17.067v51.2H435.2v-51.2
		C435.2,434.304,427.563,426.667,418.133,426.667z"/>
	<path style="fill:#3582BD;" d="M486.4,426.667c-9.429,0-17.067,7.637-17.067,17.067v51.2h34.133v-51.2
		C503.467,434.304,495.829,426.667,486.4,426.667z"/>
	<path style="fill:#3582BD;" d="M349.867,426.667c-9.429,0-17.067,7.637-17.067,17.067v51.2h34.133v-51.2
		C366.933,434.304,359.296,426.667,349.867,426.667z"/>
</g>
<rect y="494.933" style="fill:#FDB62F;" width="153.6" height="17.067"/>
<rect x="93.867" y="494.933" style="fill:#FFA230;" width="59.733" height="17.067"/>
<rect x="8.533" y="110.933" style="fill:#FDB62F;" width="136.533" height="119.467"/>
<rect x="102.4" y="110.933" style="fill:#FFA230;" width="42.667" height="119.467"/>
<polygon style="fill:#FA962A;" points="145.067,110.933 8.533,110.933 42.667,76.8 110.933,76.8 "/>
<circle style="fill:#E5E5E5;" cx="76.8" cy="170.667" r="34.133"/>
<rect x="25.6" y="230.4" style="fill:#FDB62F;" width="102.4" height="281.6"/>
<rect x="93.867" y="230.4" style="fill:#FFA230;" width="34.133" height="281.6"/>
<rect x="42.667" y="42.667" style="fill:#FDB62F;" width="68.267" height="34.133"/>
<g>
	<polygon style="fill:#FA962A;" points="42.667,42.667 76.8,8.533 110.933,42.667 	"/>
	<rect x="51.2" y="256" style="fill:#FA962A;" width="17.067" height="51.2"/>
	<rect x="85.333" y="256" style="fill:#FA962A;" width="17.067" height="51.2"/>
	<rect x="51.2" y="460.8" style="fill:#FA962A;" width="17.067" height="51.2"/>
	<rect x="85.333" y="460.8" style="fill:#FA962A;" width="17.067" height="51.2"/>
	<rect x="51.2" y="392.533" style="fill:#FA962A;" width="17.067" height="51.2"/>
	<rect x="85.333" y="392.533" style="fill:#FA962A;" width="17.067" height="51.2"/>
	<rect x="51.2" y="324.267" style="fill:#FA962A;" width="17.067" height="51.2"/>
	<rect x="85.333" y="324.267" style="fill:#FA962A;" width="17.067" height="51.2"/>
</g>
<rect x="25.6" y="230.4" style="fill:#FFA230;" width="102.4" height="17.067"/>
<polygon style="fill:#CF4737;" points="298.667,187.733 298.667,153.6 213.333,153.6 213.333,187.733 179.2,315.733 230.4,315.733 
	256,230.4 281.6,315.733 332.8,315.733 "/>
<g>
	<path style="fill:#DE4C3C;" d="M278.315,76.8l-2.688-17.263c-1.007-6.485-5.163-12.058-11.093-14.865V8.533
		C264.533,3.823,260.71,0,256,0c-4.71,0-8.533,3.823-8.533,8.533v36.139c-5.931,2.807-10.086,8.38-11.093,14.865L233.685,76.8
		l-11.819,76.8h68.267L278.315,76.8z"/>
	<path style="fill:#DE4C3C;" d="M414.345,494.933l-64.478-145.067v-34.133H162.133v34.133L97.655,494.933H76.8V512h119.467v-17.067
		h-22.042l22.699-54.485c13.594-32.623,51.063-48.051,83.695-34.458c15.582,6.494,27.964,18.876,34.458,34.458l22.699,54.485
		h-22.042V512H435.2v-17.067H414.345z"/>
</g>
<g>
	<path style="fill:#CF4737;" d="M196.267,512v-17.067h-22.042l13.065-31.368c-29.397,19.541-57.463,35.755-81.34,48.435H196.267z"/>
	<path style="fill:#CF4737;" d="M414.345,494.933l-64.478-145.067v-33.715c-24.183,31.488-51.584,60.373-81.749,86.187
		c21.035,4.028,38.656,18.33,46.933,38.084l22.724,54.511h-22.042V512H435.2v-17.067H414.345z"/>
	<path style="fill:#CF4737;" d="M225.126,132.395l-3.26,21.205h68.267l-10.385-67.507
		C263.433,103.629,245.094,119.168,225.126,132.395z"/>
</g>
<g>
</g>
<g>
</g>
<g>
</g>
<g>
</g>
<g>
</g>
<g>
</g>
<g>
</g>
<g>
</g>
<g>
</g>
<g>
</g>
<g>
</g>
<g>
</g>
<g>
</g>
<g>
</g>
<g>
</g>
</svg>
