<?xml version="1.0" encoding="iso-8859-1"?>
<!-- Generator: Adobe Illustrator 19.0.0, SVG Export Plug-In . SVG Version: 6.00 Build 0)  -->
<svg version="1.1" id="Capa_1" xmlns="http://www.w3.org/2000/svg" xmlns:xlink="http://www.w3.org/1999/xlink" x="0px" y="0px"
	 viewBox="0 0 512.005 512.005" style="enable-background:new 0 0 512.005 512.005;" xml:space="preserve">
<polygon style="fill:#DE4C3C;" points="264.829,406.083 379.578,476.698 379.578,512.005 273.656,494.351 "/>
<polygon style="fill:#CF4737;" points="264.829,406.083 273.656,494.351 296.544,498.164 310.067,433.923 "/>
<polygon style="fill:#DE4C3C;" points="247.176,406.083 132.427,476.698 132.427,512.005 238.349,494.351 "/>
<g>
	<path style="fill:#4398D1;" d="M114.773,247.2v-26.48c0-9.754,7.9-17.654,17.654-17.654l0,0c9.754,0,17.654,7.9,17.654,17.654
		v26.48H114.773z"/>
	<path style="fill:#4398D1;" d="M35.332,291.334v-26.48c0-9.754,7.9-17.654,17.654-17.654l0,0c9.754,0,17.654,7.9,17.654,17.654l0,0
		v26.48H35.332z"/>
	<path style="fill:#4398D1;" d="M397.232,247.2v-26.48c0-9.754-7.9-17.654-17.654-17.654l0,0c-9.754,0-17.654,7.9-17.654,17.654
		v26.48H397.232z"/>
	<path style="fill:#4398D1;" d="M441.366,264.854L441.366,264.854c0-9.754,7.9-17.654,17.654-17.654l0,0
		c9.754,0,17.654,7.9,17.654,17.654v26.48h-35.307V264.854z"/>
</g>
<g>
	<path style="fill:#CFCFCF;" d="M300.137,370.776V94.567c0-26.419-5.949-52.502-17.398-76.308
		C279.111,9.9,271.988,3.562,263.258,0.932c-13.073-3.416-26.754,2.789-32.8,14.873c-12.234,24.45-18.598,51.416-18.589,78.762
		v276.209l23.832,123.77c1.509,10.045,10.142,17.468,20.302,17.46l0,0c10.16,0.009,18.792-7.415,20.302-17.46L300.137,370.776z"/>
	<polygon style="fill:#CFCFCF;" points="211.868,194.239 0.025,308.988 0.025,361.949 211.868,282.507 	"/>
	<polygon style="fill:#CFCFCF;" points="300.137,194.239 511.98,308.988 511.98,361.949 300.137,282.507 	"/>
</g>
<g>
	<polygon style="fill:#C4C4C4;" points="185.388,208.583 185.388,292.438 211.868,282.507 211.868,194.239 	"/>
	<polygon style="fill:#C4C4C4;" points="326.617,208.583 300.137,194.239 300.137,282.507 326.617,292.438 	"/>
	<path style="fill:#C4C4C4;" d="M282.739,18.259c-2.163-4.511-5.261-8.5-9.083-11.722v495.326c1.351-2.242,2.242-4.731,2.648-7.317
		l23.832-123.77V94.567C300.137,68.148,294.187,42.074,282.739,18.259z"/>
</g>
<path style="fill:#126099;" d="M265.279,82.28l-6.029-18.104c-0.768-1.792-2.842-2.63-4.634-1.862
	c-0.839,0.353-1.509,1.024-1.862,1.862l-6.029,18.104l-16.771-5.579l6.038-18.104c3.69-11.042,15.632-17,26.675-13.311
	c6.285,2.101,11.219,7.035,13.311,13.311l6.038,18.113L265.279,82.28z"/>
<g>
</g>
<g>
</g>
<g>
</g>
<g>
</g>
<g>
</g>
<g>
</g>
<g>
</g>
<g>
</g>
<g>
</g>
<g>
</g>
<g>
</g>
<g>
</g>
<g>
</g>
<g>
</g>
<g>
</g>
</svg>
