<?xml version="1.0" encoding="iso-8859-1"?>
<!-- Generator: Adobe Illustrator 19.0.0, SVG Export Plug-In . SVG Version: 6.00 Build 0)  -->
<svg xmlns="http://www.w3.org/2000/svg" xmlns:xlink="http://www.w3.org/1999/xlink" version="1.1" id="Capa_1" x="0px" y="0px" viewBox="0 0 480 480" style="enable-background:new 0 0 480 480;" xml:space="preserve" width="512px" height="512px">
<g>
	<g>
		<path d="M472,100.001h-32c-4.418,0-8,3.582-8,8v76.448c-4.843-2.879-10.366-4.415-16-4.448h-12.32    c17.644-19.738,15.947-50.042-3.79-67.686c-19.738-17.644-50.042-15.947-67.686,3.79c-0.234,0.261-0.464,0.525-0.692,0.791    c-1.084-0.571-2.287-0.878-3.512-0.896H176c-34.154-0.119-65.7,18.243-82.464,48H48v-8c0-4.418-3.582-8-8-8H8    c-4.418,0-8,3.582-8,8v216c0,4.418,3.582,8,8,8h32c4.418,0,8-3.582,8-8v-32h384v32c0,4.418,3.582,8,8,8h32c4.418,0,8-3.582,8-8    V108.001C480,103.582,476.418,100.001,472,100.001z M368,116.001c17.673,0,32,14.327,32,32c0,17.673-14.327,32-32,32    c-17.673,0-32-14.327-32-32C336,130.327,350.327,116.001,368,116.001z M336,183.681l0.536,0.48L336,184.449V183.681z M352,196.001    h64c8.837,0,16,7.163,16,16c0,8.837-7.163,16-16,16h-64c-8.837,0-16-7.163-16-16C336,203.163,343.163,196.001,352,196.001z     M48,180.001h50.336c3.032,0.001,5.805-1.712,7.16-4.424c13.275-26.776,40.618-43.676,70.504-43.576h144v96H48V180.001z     M48,244.001h384v32H48V244.001z M464,364.001h-16v-32c0-4.418-3.582-8-8-8H40c-4.418,0-8,3.582-8,8v32H16v-200h16v120    c0,4.418,3.582,8,8,8h400c4.418,0,8-3.582,8-8v-168h16V364.001z" fill="#24365c"/>
	</g>
</g>
<g>
</g>
<g>
</g>
<g>
</g>
<g>
</g>
<g>
</g>
<g>
</g>
<g>
</g>
<g>
</g>
<g>
</g>
<g>
</g>
<g>
</g>
<g>
</g>
<g>
</g>
<g>
</g>
<g>
</g>
</svg>
