<?xml version="1.0" encoding="iso-8859-1"?>
<!-- Generator: Adobe Illustrator 19.0.0, SVG Export Plug-In . SVG Version: 6.00 Build 0)  -->
<svg version="1.1" id="Capa_1" xmlns="http://www.w3.org/2000/svg" xmlns:xlink="http://www.w3.org/1999/xlink" x="0px" y="0px"
	 viewBox="0 0 512 512" style="enable-background:new 0 0 512 512;" xml:space="preserve">
<polygon style="fill:#8C421C;" points="476.69,110.345 476.69,304.552 35.31,304.552 35.31,163.31 0,163.31 0,401.655 
	35.31,401.655 35.31,357.517 476.69,357.517 476.69,401.655 512,401.655 512,110.345 "/>
<polygon style="fill:#CFCFCF;" points="476.69,304.552 35.31,304.552 35.31,251.586 353.103,251.586 353.103,251.586 
	476.69,251.586 "/>
<path id="SVGCleanerId_0" style="fill:#4398D1;" d="M35.31,251.586h317.793V128H185.379c-36.299-0.018-69.491,20.498-85.716,52.966
	H35.31V251.586z"/>
<path style="fill:#E5E5E5;" d="M379.586,198.621h70.621c14.627,0,26.483,11.855,26.483,26.483l0,0
	c0,14.627-11.855,26.483-26.483,26.483h-70.621c-14.627,0-26.483-11.855-26.483-26.483l0,0
	C353.103,210.476,364.959,198.621,379.586,198.621z"/>
<circle style="fill:#F2BB80;" cx="397.241" cy="154.483" r="44.138"/>
<path style="fill:#EBB071;" d="M418.163,115.906c3.61,6.382,5.526,13.586,5.561,20.921c0,24.373-19.765,44.138-44.138,44.138
	c-7.336-0.035-14.539-1.951-20.921-5.561c11.22,21.645,37.853,30.093,59.498,18.873c21.645-11.22,30.093-37.853,18.873-59.498
	C432.843,126.694,426.249,120.099,418.163,115.906z"/>
<g>
	<path id="SVGCleanerId_0_1_" style="fill:#4398D1;" d="M35.31,251.586h317.793V128H185.379
		c-36.299-0.018-69.491,20.498-85.716,52.966H35.31V251.586z"/>
</g>
<rect x="35.31" y="216.276" style="fill:#3E8CC7;" width="317.793" height="35.31"/>
<g>
</g>
<g>
</g>
<g>
</g>
<g>
</g>
<g>
</g>
<g>
</g>
<g>
</g>
<g>
</g>
<g>
</g>
<g>
</g>
<g>
</g>
<g>
</g>
<g>
</g>
<g>
</g>
<g>
</g>
</svg>
