<?xml version="1.0" encoding="iso-8859-1"?>
<!-- Generator: Adobe Illustrator 19.0.0, SVG Export Plug-In . SVG Version: 6.00 Build 0)  -->
<svg version="1.1" id="Capa_1" xmlns="http://www.w3.org/2000/svg" xmlns:xlink="http://www.w3.org/1999/xlink" x="0px" y="0px"
	 viewBox="0 0 512 512" style="enable-background:new 0 0 512 512;" xml:space="preserve">
<rect x="256.441" style="fill:#DE4C3C;" width="70.621" height="52.966"/>
<polygon style="fill:#C94536;" points="256.441,51.986 256.441,52.966 327.062,52.966 327.062,0 323.275,0 "/>
<rect x="247.614" style="fill:#C7C7C7;" width="17.655" height="105.931"/>
<path style="fill:#FA962A;" d="M459.476,238.345H53.407c0-73.128,59.286-132.414,132.414-132.414h141.241
	C400.19,105.931,459.476,165.217,459.476,238.345z"/>
<path style="fill:#88B337;" d="M206.724,300.2c-11.467,0.115-22.616-3.734-31.576-10.893c-12.076-9.066-28.69-9.066-40.766,0
	c-18.547,14.521-44.597,14.521-63.144,0c-7.23-5.553-16.419-7.892-25.423-6.471l-2.472-17.479c13.886-2.057,28.01,1.66,39.08,10.302
	c12.076,9.066,28.69,9.066,40.766,0c18.547-14.513,44.606-14.513,63.153,0c12.076,9.066,28.69,9.066,40.766,0
	c18.547-14.521,44.597-14.521,63.144,0c12.076,9.066,28.698,9.066,40.775,0c18.547-14.53,44.606-14.53,63.153,0
	c12.076,9.057,28.69,9.057,40.766,0c9.569-7.548,21.539-11.379,33.713-10.787l-0.706,17.655c-7.848-0.38-15.572,2.03-21.822,6.797
	c-18.547,14.521-44.597,14.521-63.144,0c-12.076-9.066-28.69-9.066-40.766,0c-18.547,14.53-44.615,14.53-63.161,0
	c-12.076-9.066-28.69-9.066-40.766,0C229.332,296.474,218.183,300.314,206.724,300.2z"/>
<path style="fill:#75462E;" d="M88.717,326.621h335.448c19.5,0,35.31,15.81,35.31,35.31l0,0c0,19.5-15.81,35.31-35.31,35.31H88.717
	c-19.5,0-35.31-15.81-35.31-35.31l0,0C53.407,342.431,69.217,326.621,88.717,326.621z"/>
<path style="fill:#FA962A;" d="M53.407,432.552h406.069l0,0v44.138c0,19.5-15.81,35.31-35.31,35.31H88.717
	c-19.5,0-35.31-15.81-35.31-35.31L53.407,432.552L53.407,432.552z"/>
<polygon style="fill:#FDB62F;" points="212.303,326.621 309.407,397.241 406.51,326.621 "/>
<path style="fill:#ED8A1F;" d="M392.28,123.189c-46.68,61.696-140.2,96.759-209.505,115.156h276.701
	C459.476,190.649,433.796,146.653,392.28,123.189z"/>
<g>
	<rect x="300.579" y="132.414" style="fill:#EBEBEB;" width="17.655" height="17.655"/>
	<rect x="247.614" y="132.414" style="fill:#EBEBEB;" width="17.655" height="17.655"/>
	<rect x="194.648" y="132.414" style="fill:#EBEBEB;" width="17.655" height="17.655"/>
	<rect x="274.097" y="167.724" style="fill:#EBEBEB;" width="17.655" height="17.655"/>
	<rect x="221.131" y="167.724" style="fill:#EBEBEB;" width="17.655" height="17.655"/>
	<rect x="168.166" y="167.724" style="fill:#EBEBEB;" width="17.655" height="17.655"/>
	<rect x="327.062" y="167.724" style="fill:#EBEBEB;" width="17.655" height="17.655"/>
</g>
<path style="fill:#ED8A1F;" d="M395.185,432.552c-52.356,38.771-120.744,63.62-182.519,79.448h211.5c19.5,0,35.31-15.81,35.31-35.31
	v-44.138H395.185z"/>
<g>
</g>
<g>
</g>
<g>
</g>
<g>
</g>
<g>
</g>
<g>
</g>
<g>
</g>
<g>
</g>
<g>
</g>
<g>
</g>
<g>
</g>
<g>
</g>
<g>
</g>
<g>
</g>
<g>
</g>
</svg>
